<svg xmlns="http://www.w3.org/2000/svg" xmlns:xlink="http://www.w3.org/1999/xlink" xml:space="preserve" width="254px" height="62px" viewBox="0 0 254.05 62.03"> <path fill="#fff" d="M0 30.74l14.6 0 0 -16.4 0.08 0 5.47 16.4 8.61 0 5.38 -16.4 0.09 0 0 16.4 14.59 0 0 -30.74 -19.63 0 -4.61 15.89 -0.08 0 -4.74 -15.89 -19.76 0 0 30.74 0 0zm119.24 0l29.71 0 0 -10.16 -12.18 0 0 -0.09 12.48 -9.56 0 -6.24 -30.01 0 0 9.39 10.73 0 0 0.08 -10.73 8.92 0 7.66 0 0zm32.35 0l14.59 0 0 -12.96c0,-2.28 1.51,-3.32 3.92,-3.32 2.5,0 3.75,1.04 3.75,4.18l0 12.1 14.59 0 0 -16.7c0,-8.49 -6.32,-9.73 -11.67,-9.73 -5.64,0 -9.04,2.02 -11.62,5.46l-0.09 0 0 -5.08 -13.47 0 0 26.05 0 0zm-59.3 -5.68c0,5.04 2.67,6.58 9.78,6.58 5.16,0 9.38,-0.55 11.92,-1.03l1.86 -7.53c-1.25,0.3 -3.49,0.51 -4.91,0.51 -1.77,0 -3.49,-0.21 -3.49,-2.36l0 -6.29 9.86 0 0 -9.73 -10.16 0 0 -5.21 -8.44 0c-3.14,3.44 -6.98,6.89 -10.89,10.08l0 4.86 4.47 0 0 10.12 0 0zm136.54 5.68l14.59 0 0 -7.23c0,-3.45 1.64,-4.61 6.2,-4.61l4.22 0 0 -14.34c-1.03,-0.13 -2.15,-0.25 -4,-0.25 -5.43,0 -6.55,2.97 -7.62,7.79l-0.09 0 0 -7.41 -13.3 0 0 26.05 0 0zm-23.45 -16.23c0.17,-2.97 1.94,-4.09 4.74,-4.09 3.05,0 4.26,1.38 4.26,4.09l-9 0 0 0zm21.14 6.29l0 -2.29c0,-10.42 -3.57,-14.72 -18.43,-14.72 -11.36,0 -17.65,5.21 -17.65,14.47 0,10.93 7.58,13.38 17.65,13.38 4.01,0 9.74,-0.77 15.25,-2.15l3.01 -7.14c-5.6,1.16 -10.29,2.15 -13.95,2.15 -3.83,0 -6.42,-0.48 -6.42,-3.7l20.54 0 0 0zm-160.68 -6.29c0.17,-2.97 1.93,-4.09 4.73,-4.09 3.06,0 4.26,1.38 4.26,4.09l-8.99 0 0 0zm21.14 6.29l0 -2.29c0,-10.42 -3.58,-14.72 -18.43,-14.72 -11.37,0 -17.65,5.21 -17.65,14.47 0,10.93 7.57,13.38 17.65,13.38 4,0 9.73,-0.77 15.24,-2.15l3.01 -7.14c-5.59,1.16 -10.29,2.15 -13.95,2.15 -3.83,0 -6.41,-0.48 -6.41,-3.7l20.54 0 0 0z"></path> <path fill="#4b4d4f" d="M1.37 38.12l3.22 0 6.58 20.56 0.07 0 6.58 -20.56 3.22 0 0 23.68 -1.96 0 0 -21.71 -0.07 0 -6.99 21.71 -1.59 0 -7.02 -21.71 -0.07 0 0 21.71 -1.97 0 0 -23.68zm252.54 18.32c0,0.9 0.02,1.8 0.05,2.68 0.04,0.88 0.06,1.77 0.09,2.68l-1.83 0c-0.05,-0.39 -0.08,-0.75 -0.09,-1.09 -0.01,-0.34 -0.03,-0.82 -0.05,-1.46l-0.07 0c-0.04,0.18 -0.17,0.43 -0.37,0.75 -0.2,0.32 -0.48,0.63 -0.83,0.93 -0.35,0.31 -0.79,0.57 -1.32,0.78 -0.54,0.22 -1.16,0.32 -1.89,0.32 -0.95,0 -1.73,-0.15 -2.34,-0.47 -0.61,-0.32 -1.09,-0.73 -1.46,-1.24 -0.36,-0.51 -0.61,-1.09 -0.76,-1.74 -0.15,-0.66 -0.22,-1.33 -0.22,-2.01l0 -12.07 1.97 0 0 11.67c0,0.29 0.02,0.67 0.05,1.13 0.03,0.47 0.15,0.91 0.36,1.34 0.2,0.43 0.52,0.8 0.95,1.11 0.42,0.3 1.05,0.45 1.86,0.45 0.61,0 1.16,-0.13 1.65,-0.39 0.48,-0.26 0.89,-0.61 1.23,-1.07 0.34,-0.45 0.6,-0.97 0.78,-1.57 0.18,-0.6 0.27,-1.24 0.27,-1.92l0 -10.75 1.97 0 0 11.94zm-24.55 -3.36c-1.02,0 -1.98,0.02 -2.89,0.07 -0.9,0.04 -1.7,0.18 -2.39,0.42 -0.69,0.24 -1.23,0.63 -1.63,1.17 -0.39,0.55 -0.59,1.3 -0.59,2.27 0,0.37 0.07,0.74 0.2,1.12 0.14,0.39 0.34,0.73 0.62,1.04 0.27,0.3 0.6,0.55 1,0.74 0.39,0.2 0.85,0.29 1.37,0.29 0.23,0 0.58,-0.04 1.05,-0.13 0.48,-0.09 0.96,-0.31 1.44,-0.65 0.49,-0.34 0.91,-0.84 1.27,-1.52 0.37,-0.68 0.55,-1.61 0.55,-2.78l0 -2.04zm1.83 4.85c0,0.66 0.02,1.3 0.07,1.93 0.04,0.64 0.09,1.28 0.13,1.94l-1.76 0 -0.14 -2.48 -0.07 0c-0.58,0.95 -1.26,1.64 -2.01,2.07 -0.76,0.43 -1.71,0.64 -2.84,0.64 -0.67,0 -1.3,-0.13 -1.88,-0.39 -0.57,-0.25 -1.08,-0.61 -1.52,-1.06 -0.45,-0.46 -0.79,-0.99 -1.04,-1.6 -0.25,-0.61 -0.37,-1.26 -0.37,-1.97 0,-0.92 0.15,-1.7 0.44,-2.34 0.29,-0.63 0.68,-1.15 1.17,-1.57 0.49,-0.42 1.03,-0.74 1.63,-0.97 0.6,-0.22 1.21,-0.39 1.83,-0.51 0.62,-0.11 1.22,-0.18 1.8,-0.2 0.57,-0.02 1.06,-0.04 1.47,-0.04l1.26 0c0,-0.54 -0.02,-1.12 -0.05,-1.74 -0.04,-0.62 -0.17,-1.19 -0.39,-1.71 -0.23,-0.52 -0.59,-0.96 -1.07,-1.31 -0.49,-0.35 -1.18,-0.53 -2.09,-0.53 -0.59,0 -1.13,0.09 -1.63,0.25 -0.49,0.16 -0.93,0.35 -1.32,0.55 -0.38,0.21 -0.7,0.4 -0.95,0.59 -0.25,0.18 -0.39,0.3 -0.44,0.34l-0.3 -2.03c0.81,-0.45 1.57,-0.82 2.27,-1.1 0.7,-0.29 1.52,-0.43 2.47,-0.43 1.34,0 2.37,0.24 3.09,0.71 0.72,0.48 1.25,1.04 1.58,1.68 0.32,0.65 0.52,1.29 0.57,1.92 0.06,0.63 0.09,1.11 0.09,1.42l0 7.94zm-23.4 -4.78c0,-1 -0.07,-1.92 -0.21,-2.78 -0.13,-0.86 -0.36,-1.61 -0.68,-2.24 -0.31,-0.63 -0.72,-1.13 -1.22,-1.49 -0.49,-0.37 -1.12,-0.55 -1.86,-0.55 -1.07,0 -1.88,0.28 -2.46,0.82 -0.58,0.54 -1,1.19 -1.26,1.95 -0.26,0.76 -0.41,1.55 -0.45,2.39 -0.05,0.84 -0.07,1.54 -0.07,2.1 0,0.88 0.07,1.74 0.2,2.56 0.14,0.83 0.36,1.56 0.68,2.19 0.32,0.63 0.75,1.14 1.31,1.53 0.55,0.38 1.24,0.57 2.08,0.57 0.66,0 1.21,-0.14 1.66,-0.42 0.46,-0.28 0.83,-0.65 1.12,-1.09 0.3,-0.44 0.52,-0.93 0.66,-1.47 0.15,-0.54 0.26,-1.08 0.34,-1.61 0.08,-0.53 0.13,-1.01 0.14,-1.44 0.01,-0.43 0.02,-0.77 0.02,-1.02zm-10.04 -16.79l1.96 0 0 10.38 0.07 0c0.52,-0.79 1.12,-1.4 1.8,-1.83 0.68,-0.43 1.54,-0.65 2.58,-0.65 1.08,0 1.99,0.28 2.73,0.83 0.73,0.56 1.32,1.25 1.76,2.07 0.44,0.83 0.76,1.72 0.95,2.68 0.19,0.96 0.29,1.85 0.29,2.66 0,0.41 -0.01,0.93 -0.04,1.55 -0.02,0.62 -0.09,1.29 -0.22,2 -0.12,0.71 -0.31,1.42 -0.56,2.14 -0.24,0.71 -0.58,1.35 -1.01,1.91 -0.43,0.57 -0.98,1.03 -1.63,1.39 -0.66,0.36 -1.45,0.54 -2.38,0.54 -1.08,0 -1.96,-0.23 -2.62,-0.69 -0.67,-0.46 -1.31,-1.1 -1.92,-1.92l-0.07 0 0 2.38 -1.83 0c0.05,-0.75 0.08,-1.55 0.1,-2.41 0.02,-0.86 0.04,-1.97 0.04,-3.32l0 -19.71zm-22.66 13.5c0,-0.91 -0.02,-1.8 -0.05,-2.68 -0.03,-0.88 -0.06,-1.78 -0.09,-2.68l1.84 0c0.04,0.38 0.07,0.75 0.08,1.09 0.01,0.33 0.03,0.82 0.05,1.45l0.07 0c0.09,-0.18 0.24,-0.43 0.44,-0.74 0.2,-0.32 0.48,-0.63 0.83,-0.94 0.35,-0.3 0.78,-0.56 1.29,-0.78 0.51,-0.21 1.13,-0.32 1.85,-0.32 0.79,0 1.46,0.12 2.02,0.36 0.55,0.24 1,0.54 1.35,0.91 0.35,0.38 0.63,0.8 0.82,1.26 0.19,0.46 0.33,0.91 0.42,1.36 0.09,0.44 0.14,0.84 0.15,1.22 0.02,0.37 0.02,0.65 0.02,0.83l0 11.6 -1.97 0 0 -11.67c0,-0.29 -0.01,-0.67 -0.05,-1.14 -0.03,-0.46 -0.15,-0.91 -0.35,-1.34 -0.21,-0.43 -0.52,-0.79 -0.95,-1.1 -0.43,-0.3 -1.05,-0.46 -1.87,-0.46 -0.61,0 -1.16,0.13 -1.64,0.39 -0.49,0.26 -0.9,0.62 -1.24,1.07 -0.34,0.45 -0.6,0.98 -0.78,1.58 -0.18,0.6 -0.27,1.24 -0.27,1.92l0 10.75 -1.97 0 0 -11.94zm-12.89 2.1c0,-1.15 -0.11,-2.1 -0.32,-2.85 -0.22,-0.74 -0.49,-1.34 -0.83,-1.8 -0.34,-0.45 -0.72,-0.76 -1.14,-0.94 -0.42,-0.19 -0.83,-0.28 -1.24,-0.28 -0.67,0 -1.26,0.21 -1.74,0.61 -0.49,0.41 -0.9,0.91 -1.22,1.5 -0.33,0.58 -0.57,1.22 -0.73,1.9 -0.16,0.67 -0.24,1.3 -0.24,1.86l7.46 0zm-7.46 1.83c0,1.61 0.22,2.85 0.66,3.72 0.44,0.87 0.94,1.5 1.49,1.9 0.56,0.39 1.1,0.62 1.63,0.69 0.53,0.07 0.9,0.1 1.1,0.1 0.57,0 1.21,-0.12 1.92,-0.37 0.71,-0.25 1.32,-0.6 1.82,-1.05l0.1 2.27c-0.41,0.23 -0.92,0.45 -1.55,0.66 -0.62,0.22 -1.45,0.32 -2.49,0.32 -1.13,0 -2.08,-0.18 -2.86,-0.54 -0.79,-0.36 -1.42,-0.82 -1.92,-1.37 -0.5,-0.56 -0.88,-1.18 -1.15,-1.87 -0.28,-0.69 -0.47,-1.36 -0.6,-2.03 -0.12,-0.67 -0.2,-1.27 -0.22,-1.82 -0.02,-0.54 -0.03,-0.96 -0.03,-1.25 0,-1.63 0.18,-3.01 0.54,-4.14 0.36,-1.13 0.84,-2.05 1.42,-2.75 0.59,-0.7 1.25,-1.21 1.99,-1.52 0.73,-0.32 1.46,-0.48 2.19,-0.48 1.24,0 2.23,0.3 2.96,0.9 0.74,0.6 1.3,1.36 1.68,2.29 0.39,0.93 0.63,1.96 0.73,3.09 0.1,1.13 0.15,2.21 0.15,3.25l-9.56 0zm-23.98 -3.93c0,-0.91 -0.02,-1.8 -0.05,-2.68 -0.03,-0.88 -0.06,-1.78 -0.08,-2.68l1.83 0c0.04,0.38 0.07,0.75 0.08,1.09 0.01,0.33 0.03,0.82 0.05,1.45l0.07 0c0.09,-0.18 0.24,-0.43 0.44,-0.74 0.21,-0.32 0.48,-0.63 0.83,-0.94 0.35,-0.3 0.78,-0.56 1.29,-0.78 0.51,-0.21 1.13,-0.32 1.85,-0.32 0.79,0 1.46,0.12 2.02,0.36 0.55,0.24 1,0.54 1.36,0.91 0.35,0.38 0.62,0.8 0.81,1.26 0.19,0.46 0.33,0.91 0.42,1.36 0.09,0.44 0.14,0.84 0.16,1.22 0.01,0.37 0.01,0.65 0.01,0.83l0 11.6 -1.96 0 0 -11.67c0,-0.29 -0.02,-0.67 -0.06,-1.14 -0.03,-0.46 -0.15,-0.91 -0.35,-1.34 -0.21,-0.43 -0.52,-0.79 -0.95,-1.1 -0.43,-0.3 -1.05,-0.46 -1.87,-0.46 -0.61,0 -1.16,0.13 -1.64,0.39 -0.49,0.26 -0.9,0.62 -1.24,1.07 -0.34,0.45 -0.6,0.98 -0.78,1.58 -0.18,0.6 -0.27,1.24 -0.27,1.92l0 10.75 -1.97 0 0 -11.94zm-13.84 -5.36l1.97 0 0 17.3 -1.97 0 0 -17.3zm-0.2 -6.89l2.37 0 0 3.06 -2.37 0 0 -3.06zm-22.76 -1.25l1.97 0 0 10.68 0.07 0c0.09,-0.18 0.23,-0.43 0.42,-0.74 0.19,-0.32 0.46,-0.63 0.8,-0.94 0.34,-0.3 0.76,-0.56 1.27,-0.78 0.51,-0.21 1.1,-0.32 1.78,-0.32 0.79,0 1.46,0.12 2.02,0.36 0.55,0.24 1,0.54 1.36,0.91 0.35,0.38 0.62,0.8 0.81,1.26 0.19,0.46 0.33,0.91 0.42,1.36 0.09,0.44 0.14,0.84 0.16,1.22 0.01,0.37 0.01,0.65 0.01,0.83l0 11.6 -1.96 0 0 -11.67c0,-0.29 -0.02,-0.67 -0.05,-1.14 -0.04,-0.46 -0.16,-0.91 -0.36,-1.34 -0.2,-0.43 -0.52,-0.79 -0.95,-1.1 -0.43,-0.3 -1.05,-0.46 -1.87,-0.46 -0.61,0 -1.16,0.13 -1.64,0.39 -0.49,0.26 -0.9,0.62 -1.24,1.07 -0.34,0.45 -0.6,0.98 -0.78,1.58 -0.18,0.6 -0.27,1.24 -0.27,1.92l0 10.75 -1.97 0 0 -25.44zm-10.27 10.75c-0.39,-0.32 -0.88,-0.54 -1.46,-0.68 -0.59,-0.13 -1.15,-0.2 -1.66,-0.2 -0.66,0 -1.29,0.12 -1.9,0.36 -0.61,0.23 -1.15,0.61 -1.62,1.13 -0.46,0.52 -0.83,1.18 -1.11,1.99 -0.29,0.8 -0.43,1.78 -0.43,2.93 0,1.58 0.19,2.86 0.58,3.83 0.38,0.97 0.85,1.73 1.41,2.26 0.55,0.53 1.13,0.89 1.74,1.07 0.61,0.18 1.16,0.27 1.63,0.27 0.2,0 0.44,-0.02 0.71,-0.05 0.27,-0.04 0.55,-0.09 0.83,-0.16 0.29,-0.06 0.55,-0.15 0.8,-0.27 0.25,-0.11 0.44,-0.26 0.58,-0.44l0.17 2.24c-0.43,0.18 -0.95,0.33 -1.55,0.46 -0.6,0.12 -1.2,0.18 -1.81,0.18 -0.93,0 -1.82,-0.18 -2.68,-0.54 -0.86,-0.36 -1.62,-0.9 -2.29,-1.63 -0.67,-0.72 -1.2,-1.64 -1.61,-2.74 -0.41,-1.11 -0.61,-2.41 -0.61,-3.9 0,-1.31 0.15,-2.52 0.44,-3.63 0.29,-1.11 0.73,-2.05 1.32,-2.83 0.59,-0.78 1.34,-1.4 2.24,-1.84 0.9,-0.44 1.96,-0.66 3.16,-0.66 0.7,0 1.31,0.06 1.83,0.17 0.52,0.12 0.98,0.26 1.39,0.44l-0.1 2.24zm-21.24 -0.37c-0.49,-0.17 -0.97,-0.31 -1.42,-0.45 -0.45,-0.13 -0.96,-0.2 -1.53,-0.2 -0.52,0 -0.96,0.09 -1.32,0.26 -0.36,0.17 -0.67,0.39 -0.92,0.66 -0.24,0.27 -0.42,0.57 -0.54,0.9 -0.11,0.33 -0.17,0.64 -0.17,0.93 0,0.41 0.05,0.74 0.14,1 0.09,0.26 0.24,0.5 0.46,0.73 0.21,0.23 0.51,0.45 0.9,0.68 0.38,0.23 0.87,0.5 1.45,0.81 0.59,0.32 1.14,0.63 1.67,0.92 0.52,0.29 0.96,0.63 1.34,1 0.37,0.37 0.66,0.8 0.88,1.27 0.21,0.48 0.32,1.06 0.32,1.76 0,0.8 -0.13,1.5 -0.39,2.11 -0.26,0.61 -0.62,1.13 -1.09,1.57 -0.46,0.45 -1,0.78 -1.62,1.01 -0.63,0.22 -1.3,0.33 -2.02,0.33 -1.09,0 -1.96,-0.09 -2.61,-0.27 -0.66,-0.18 -1.25,-0.36 -1.77,-0.54l0.27 -2.2c0.14,0.11 0.35,0.23 0.63,0.37 0.28,0.13 0.6,0.26 0.95,0.37 0.35,0.12 0.73,0.22 1.14,0.31 0.4,0.09 0.81,0.13 1.22,0.13 0.95,0 1.72,-0.3 2.3,-0.9 0.59,-0.59 0.89,-1.29 0.89,-2.08 0,-0.41 -0.07,-0.76 -0.21,-1.07 -0.13,-0.31 -0.33,-0.59 -0.57,-0.85 -0.25,-0.26 -0.58,-0.5 -0.97,-0.73 -0.4,-0.22 -0.84,-0.46 -1.34,-0.71 -0.72,-0.36 -1.35,-0.7 -1.87,-1.02 -0.52,-0.31 -0.94,-0.65 -1.27,-1.01 -0.33,-0.37 -0.56,-0.77 -0.71,-1.21 -0.15,-0.44 -0.22,-0.96 -0.22,-1.58 0,-0.81 0.16,-1.52 0.47,-2.12 0.32,-0.59 0.72,-1.09 1.21,-1.49 0.48,-0.39 1.03,-0.69 1.63,-0.88 0.6,-0.19 1.19,-0.29 1.78,-0.29 0.59,0 1.18,0.06 1.79,0.17 0.62,0.12 1.08,0.23 1.4,0.34l-0.28 1.97zm-20.62 6.34c-1.01,0 -1.98,0.02 -2.88,0.07 -0.9,0.04 -1.7,0.18 -2.39,0.42 -0.69,0.24 -1.23,0.63 -1.63,1.17 -0.39,0.55 -0.59,1.3 -0.59,2.27 0,0.37 0.07,0.74 0.2,1.12 0.14,0.39 0.34,0.73 0.61,1.04 0.27,0.3 0.61,0.55 1,0.74 0.4,0.2 0.86,0.29 1.38,0.29 0.22,0 0.57,-0.04 1.05,-0.13 0.47,-0.09 0.95,-0.31 1.44,-0.65 0.48,-0.34 0.91,-0.84 1.27,-1.52 0.36,-0.68 0.54,-1.61 0.54,-2.78l0 -2.04zm1.83 4.85c0,0.66 0.03,1.3 0.07,1.93 0.05,0.64 0.09,1.28 0.14,1.94l-1.77 0 -0.13 -2.48 -0.07 0c-0.59,0.95 -1.26,1.64 -2.02,2.07 -0.75,0.43 -1.7,0.64 -2.83,0.64 -0.68,0 -1.3,-0.13 -1.88,-0.39 -0.58,-0.25 -1.09,-0.61 -1.53,-1.06 -0.44,-0.46 -0.78,-0.99 -1.03,-1.6 -0.25,-0.61 -0.38,-1.26 -0.38,-1.97 0,-0.92 0.15,-1.7 0.45,-2.34 0.29,-0.63 0.68,-1.15 1.17,-1.57 0.48,-0.42 1.02,-0.74 1.62,-0.97 0.6,-0.22 1.21,-0.39 1.84,-0.51 0.62,-0.11 1.22,-0.18 1.79,-0.2 0.58,-0.02 1.07,-0.04 1.48,-0.04l1.25 0c0,-0.54 -0.01,-1.12 -0.05,-1.74 -0.03,-0.62 -0.16,-1.19 -0.39,-1.71 -0.22,-0.52 -0.58,-0.96 -1.07,-1.31 -0.48,-0.35 -1.18,-0.53 -2.08,-0.53 -0.59,0 -1.13,0.09 -1.63,0.25 -0.5,0.16 -0.94,0.35 -1.32,0.55 -0.39,0.21 -0.7,0.4 -0.95,0.59 -0.25,0.18 -0.4,0.3 -0.44,0.34l-0.31 -2.03c0.82,-0.45 1.57,-0.82 2.27,-1.1 0.7,-0.29 1.53,-0.43 2.48,-0.43 1.33,0 2.36,0.24 3.09,0.71 0.72,0.48 1.25,1.04 1.57,1.68 0.33,0.65 0.52,1.29 0.58,1.92 0.06,0.63 0.08,1.11 0.08,1.42l0 7.94z"></path> </svg>