<svg xmlns="http://www.w3.org/2000/svg" xmlns:xlink="http://www.w3.org/1999/xlink" id="Livello_1" viewBox="0 0 300 58.59"><defs><style>      .st0 {        fill: none;      }      .st1 {        fill: #ee7d00;      }      .st2 {        fill: url(#Sfumatura_senza_nome_183);      }      .st2, .st3, .st4, .st5, .st6, .st7, .st8, .st9, .st10, .st11, .st12, .st13 {        opacity: .8;      }      .st3 {        fill: url(#Sfumatura_senza_nome_1831);      }      .st4 {        fill: url(#Sfumatura_senza_nome_1832);      }      .st5 {        fill: url(#Sfumatura_senza_nome_1833);      }      .st6 {        fill: url(#Sfumatura_senza_nome_1839);      }      .st7 {        fill: url(#Sfumatura_senza_nome_1835);      }      .st8 {        fill: url(#Sfumatura_senza_nome_1836);      }      .st9 {        fill: url(#Sfumatura_senza_nome_1837);      }      .st10 {        fill: url(#Sfumatura_senza_nome_1838);      }      .st11 {        fill: url(#Sfumatura_senza_nome_1834);      }      .st14 {        fill: #164193;      }      .st12 {        fill: url(#Sfumatura_senza_nome_18310);      }      .st13 {        fill: url(#Sfumatura_senza_nome_18311);      }      .st15 {        fill: url(#Sfumatura_senza_nome_196);      }    </style><linearGradient id="Sfumatura_senza_nome_183" data-name="Sfumatura senza nome 183" x1="81.52" y1="21.99" x2="95.57" y2="21.99" gradientUnits="userSpaceOnUse"><stop offset="0" stop-color="#164193"></stop><stop offset="1" stop-color="#164193"></stop></linearGradient><linearGradient id="Sfumatura_senza_nome_1831" data-name="Sfumatura senza nome 183" x1="74.15" y1="21.51" x2="80.38" y2="21.51" xlink:href="#Sfumatura_senza_nome_183"></linearGradient><linearGradient id="Sfumatura_senza_nome_1832" data-name="Sfumatura senza nome 183" x1="96.08" y1="22.47" x2="112.09" y2="22.47" xlink:href="#Sfumatura_senza_nome_183"></linearGradient><linearGradient id="Sfumatura_senza_nome_1833" data-name="Sfumatura senza nome 183" x1="119.21" y1="16.28" x2="125.81" y2="16.28" xlink:href="#Sfumatura_senza_nome_183"></linearGradient><linearGradient id="Sfumatura_senza_nome_1834" data-name="Sfumatura senza nome 183" x1="119.21" y1="22.94" x2="125.81" y2="22.94" xlink:href="#Sfumatura_senza_nome_183"></linearGradient><linearGradient id="Sfumatura_senza_nome_1835" data-name="Sfumatura senza nome 183" x1="132.48" y1="19.61" x2="139.09" y2="19.61" xlink:href="#Sfumatura_senza_nome_183"></linearGradient><linearGradient id="Sfumatura_senza_nome_1836" data-name="Sfumatura senza nome 183" x1="141.64" y1="23.2" x2="155.39" y2="23.2" xlink:href="#Sfumatura_senza_nome_183"></linearGradient><linearGradient id="Sfumatura_senza_nome_1837" data-name="Sfumatura senza nome 183" x1="161.05" y1="23.03" x2="181.44" y2="23.03" xlink:href="#Sfumatura_senza_nome_183"></linearGradient><linearGradient id="Sfumatura_senza_nome_1838" data-name="Sfumatura senza nome 183" x1="186.87" y1="22.9" x2="211.68" y2="22.9" xlink:href="#Sfumatura_senza_nome_183"></linearGradient><linearGradient id="Sfumatura_senza_nome_1839" data-name="Sfumatura senza nome 183" x1="217.97" y1="22.61" x2="242.1" y2="22.61" xlink:href="#Sfumatura_senza_nome_183"></linearGradient><linearGradient id="Sfumatura_senza_nome_18310" data-name="Sfumatura senza nome 183" x1="249.03" y1="18.6" x2="255.64" y2="18.6" xlink:href="#Sfumatura_senza_nome_183"></linearGradient><linearGradient id="Sfumatura_senza_nome_18311" data-name="Sfumatura senza nome 183" x1="264.22" y1="21.33" x2="280.6" y2="21.33" xlink:href="#Sfumatura_senza_nome_183"></linearGradient><linearGradient id="Sfumatura_senza_nome_196" data-name="Sfumatura senza nome 196" x1="30.71" y1="6.93" x2="40.54" y2="29.02" gradientUnits="userSpaceOnUse"><stop offset="0" stop-color="#0084cc"></stop><stop offset=".08" stop-color="#164193"></stop><stop offset=".28" stop-color="#257ec1"></stop><stop offset=".32" stop-color="#004f9e"></stop><stop offset=".62" stop-color="#6abbe9"></stop><stop offset=".67" stop-color="#65b6e5"></stop><stop offset=".71" stop-color="#58a9dc"></stop><stop offset=".76" stop-color="#4393cd"></stop><stop offset=".81" stop-color="#2575b8"></stop><stop offset=".86" stop-color="#004f9e"></stop><stop offset=".9" stop-color="#004f9e"></stop><stop offset="1" stop-color="#164193"></stop></linearGradient></defs><g><g><path class="st0" d="M192.46,29.61c0,2.61.39,3.49,1.74,4.03,1,.42,2.69.63,5.21.63,5.78,0,6.77-.71,6.77-4.92,0-2.68-.43-3.65-1.85-4.19-3.44.08-6.92.15-10.46.21-1.12.71-1.42,1.98-1.42,4.23Z"></path><path class="st0" d="M230.43,33.59c2.54,0,4.1-.25,4.81-.76.78-.54,1.01-1.44,1.01-3.75,0-3.21-.9-3.83-5.71-3.83-5.18,0-5.97.58-5.97,4.4,0,3.28.97,3.93,5.86,3.93Z"></path><path class="st0" d="M80.72,23.44c.21-.44.47-.82.8-1.16-.39-.04-.76-.09-1.14-.13v1.29h.34Z"></path><path class="st0" d="M96.08,23.57c-.17-.01-.34-.02-.51-.04.1.15.2.32.3.48.07-.15.14-.3.22-.45Z"></path><path class="st0" d="M277.72,30.92c-.41-.14-1.45-.18-4.25-.18-4.03,0-5.11.4-5.11,1.8s1.04,1.77,4.59,1.77c4.63,0,5.93-.43,5.93-1.95,0-.69-.41-1.19-1.16-1.44Z"></path><path class="st14" d="M95.86,24.02c-.09-.17-.19-.33-.3-.48-5.27-.38-9.99-.8-14.05-1.26-.33.34-.59.72-.8,1.16h-.34v-1.29c-2.31-.27-4.39-.56-6.23-.86v16.66h6.6v-7.04c0-2.82.22-3.9.97-4.62.75-.72,2.05-1.05,4.03-1.05s3.06.29,3.66.94c.63.65.71,1.12.71,3.79v7.98h6.6v-7.04c0-2.78.22-3.79.97-4.58.71-.76,1.94-1.08,3.92-1.08s3.06.29,3.73.94c.63.61.71.94.75,3.79v7.98h6.6v-7.98c0-2.74-.13-4.32-.6-5.49-5.77-.26-11.12-.57-16.01-.91-.08.14-.15.29-.22.45Z"></path><path class="st14" d="M119.21,37.95h6.6v-12.95c-2.25-.07-4.45-.15-6.6-.23v13.17Z"></path><path class="st14" d="M140.5,26.44h-1.42v-1.1c-2.24-.04-4.43-.09-6.6-.15v12.76h6.6v-6.86h1.68l7.09,6.86h8.77l-10.37-9.13,3.81-3.31c-2.85-.03-5.65-.07-8.41-.12l-1.14,1.05Z"></path><path class="st14" d="M175.3,28.46h6.23v-1.19c0-.63-.03-1.2-.09-1.73-2.47.02-4.91.04-7.34.05.9.42,1.2,1.28,1.2,2.87Z"></path><path class="st14" d="M161.05,25.59v12.36h6.6v-7.08c0-2.64.19-3.57.82-4.4.3-.37.74-.67,1.26-.87-2.93,0-5.83,0-8.69,0Z"></path><path class="st14" d="M206.18,29.35c0,4.2-1,4.92-6.77,4.92-2.52,0-4.21-.21-5.21-.63-1.35-.55-1.74-1.43-1.74-4.03,0-2.25.3-3.53,1.42-4.23-2.32.04-4.65.07-7.01.1-.16.94-.22,2.1-.22,3.59,0,4.76.45,6.45,2.08,7.73,1.7,1.36,3.94,1.72,10.6,1.72s8.89-.37,10.6-1.72c1.63-1.32,2.08-2.93,2.08-7.73,0-1.78-.09-3.08-.32-4.1-2.42.07-4.87.13-7.34.19,1.42.55,1.85,1.52,1.85,4.19Z"></path><path class="st14" d="M217.97,45.07h6.6v-9.31h.3c1.31,2.02,2.98,2.64,7.46,2.64,8.8,0,10.52-1.44,10.52-8.88,0-2.92-.19-4.61-.75-5.78-7.54.41-15.62.76-24.13,1.04v20.3ZM230.54,25.25c4.81,0,5.71.61,5.71,3.83,0,2.31-.22,3.21-1.01,3.75-.71.51-2.28.76-4.81.76-4.89,0-5.86-.65-5.86-3.93,0-3.83.78-4.4,5.97-4.4Z"></path><path class="st14" d="M249.03,37.95h6.6v-15.06c-2.14.15-4.34.29-6.6.43v14.63Z"></path><path class="st14" d="M262.46,26.22h6.6c.22-1.55.63-1.7,5.48-1.7,3.92,0,4.44.36,4.44,3.03v.9h-.3c-1.01-1.08-1.98-1.34-4.81-1.34-5.07,0-6.75.11-8.36.54-2.57.65-3.77,2.35-3.77,5.41,0,4.04,1.83,5.31,7.65,5.31,4.33,0,5.97-.14,7.09-.58,1.19-.47,1.9-1.08,2.46-2.2h.26v2.35h6.34v-10.29c0-3.1-.37-4.4-1.49-5.56-.88-.85-1.72-1.29-3.46-1.5-4.72.58-10.22,1.14-16.38,1.64-1.1.9-1.62,2.12-1.76,3.97ZM272.94,34.31c-3.54,0-4.59-.4-4.59-1.77s1.08-1.8,5.11-1.8c2.8,0,3.84.04,4.25.18.75.25,1.16.76,1.16,1.44,0,1.52-1.31,1.95-5.93,1.95Z"></path><path class="st2" d="M87.84,20.45c-3.08,0-5.12.58-6.32,1.84,4.06.46,8.78.88,14.05,1.26-1.44-2.18-3.75-3.09-7.72-3.09Z"></path><path class="st3" d="M80.38,20.88h-6.23v.41c1.84.3,3.92.59,6.23.86v-1.27Z"></path><path class="st4" d="M103.47,20.45c-4.07,0-6.22.89-7.39,3.13,4.89.34,10.24.65,16.01.91-.28-.71-.69-1.26-1.27-1.84-1.53-1.55-3.69-2.2-7.35-2.2Z"></path><rect class="st5" x="119.21" y="13.88" width="6.6" height="4.8"></rect><path class="st11" d="M119.21,20.88v3.9c2.15.08,4.36.16,6.6.23v-4.13h-6.6Z"></path><path class="st7" d="M139.09,13.88h-6.6v11.32c2.17.05,4.37.1,6.6.15v-11.46Z"></path><path class="st8" d="M146.55,20.88l-4.9,4.51c2.76.05,5.56.09,8.41.12l5.33-4.63h-8.84Z"></path><path class="st9" d="M174.41,20.45c-3.69,0-5.56.83-6.79,3h-.34v-2.56h-6.23v4.71c2.86.01,5.76.01,8.69,0,.59-.23,1.3-.35,2.09-.35,1.01,0,1.74.09,2.27.34,2.43-.01,4.88-.03,7.34-.05-.42-3.76-2.39-5.09-7.04-5.09Z"></path><path class="st10" d="M209.69,21.89c-1.67-1.17-4.28-1.57-10.22-1.57-6.28,0-8.86.4-10.52,1.57-1.16.84-1.79,1.82-2.08,3.59,2.35-.03,4.69-.06,7.01-.1,1.01-.64,2.69-.81,5.44-.81,2.26,0,4.04.21,4.99.59,0,0,.01,0,.02,0,2.48-.06,4.93-.12,7.34-.19-.33-1.46-.94-2.32-1.99-3.08Z"></path><path class="st6" d="M241.02,22.32c-1.49-1.37-3.84-1.88-8.43-1.88-5,0-6.9.65-8.06,2.74h-.34v-2.31h-6.23v3.89c8.51-.28,16.59-.64,24.13-1.04-.27-.56-.62-1-1.08-1.4Z"></path><path class="st12" d="M249.03,13.88v9.45c2.26-.14,4.46-.28,6.6-.43v-9.02h-6.6Z"></path><path class="st13" d="M265.56,21.42c-.52.25-.96.52-1.34.83,6.16-.51,11.66-1.06,16.38-1.64-1.21-.15-2.85-.19-5.27-.19-5.18,0-8.28.32-9.77,1.01Z"></path></g><path class="st15" d="M62.35,6.91c0-2.26-1.85-4.1-4.12-4.1-.63,0-1.24.14-1.77.4-3.17,1.52-5.84,3.89-7.71,6.86-1.87,2.98-2.87,6.41-2.87,9.93v.42s-.01.02-.01.03,0,.02.01.03h0c0,.42-.22.81-.58,1.02,0,0-.02.01-.02.03,0,0,0,0,0,0l-4.05,2.05s-.02,0-.03,0c-.76.33-1.59.51-2.4.51s-1.66-.18-2.42-.51c0,0-.01,0-.02,0l-.81-.39-.8-.5-.74-.57-.69-.62-.63-.7-.56-.75-.47-.8v-.02s0-.01,0-.02c-.11-.18-.14-.4-.14-.54,0-.32.13-.63.35-.84.01,0,.02,0,.03,0l4.07-3.7.77-.73.74-.74.73-.76.72-.79h0s0,0,0,0l.68-.79h0s0,0,0,0l.67-.82s0-.02,0-.03c0,0,0-.01,0-.02.56-.71.87-1.6.87-2.51,0-2.26-1.85-4.1-4.12-4.1-.67,0-1.29.15-1.85.44-2.57,1.28-4.75,3.25-6.28,5.69-1.53,2.44-2.37,5.25-2.41,8.12h0s-4.59,4.2-4.59,4.2c-.01,0-.02,0-.03,0-4.68,4.27-7.37,10.35-7.37,16.69,0,2.22.32,4.41.96,6.51.49,1.6,1.45,2.97,2.79,3.96,1.34,1,2.93,1.52,4.59,1.52,3.25,0,5.94-2.55,6.13-5.81,0-.01,0-.02,0-.04,0-.02,0-.04,0-.05,0-1.01-.83-1.84-1.85-1.84h-2.88s-.02-.01-.02-.01c-.87,0-1.7-.5-2.1-1.28h0s0-.02,0-.02c-1.04-1.98-1.58-4.23-1.58-6.5,0-3.98,1.68-7.79,4.61-10.46h0s.02,0,.02,0l2.18-1.98s0,.01,0,.02h0s0,0,0,0c0,0,0,0,0,0h0c.34,2.32,1.51,4.45,3.28,5.98,1.78,1.54,4.05,2.39,6.41,2.39,1.52,0,3.03-.35,4.35-1.01l.96-.48h0s0,0,0,0l.95-.51h0s0,0,0,0l.93-.52h0s0,0,0,0l.92-.56h0s0,0,0,0l.92-.58.85-.58.39,1.03s0,0,0,0h0s.47,1.05.47,1.05c0,0,0,0,0,0,0,0,0,0,0,0l.54,1.01s0,0,0,0h0s.6.99.6.99c0,0,0,0,0,0,0,0,0,0,0,0l.67.95s0,0,0,0c0,0,0,0,0,0l.7.9s.02.01.03.01c1.16,1.36,2.85,2.14,4.65,2.14,3.38,0,6.14-2.75,6.14-6.14,0-.06,0-.11,0-.15,0-.03,0-.06,0-.09,0,0,0-.02-.01-.02h0c-.06-1.3-1.12-2.32-2.42-2.33h-3.49s-.23-.04-.23-.04l-.23-.05-.21-.08-.21-.1-.19-.11-.19-.14-1.63-1.68h-.01c-.15-.22-.24-.46-.24-.72,0-.32.12-.62.34-.84,0,0,.02,0,.02,0l1.64-1.63,1.56-1.72,1.46-1.79,1.37-1.86,1.28-1.93,1.17-2,1.07-2.05s0-.02,0-.03c0,0,0-.01-.01-.02.27-.58.41-1.18.41-1.78ZM30.3,15.08s-.03.02-.04.03c-.06.04-.11.05-.18.05-.14,0-.26-.12-.26-.26v-.03s0-.02,0-.03c.38-1.88,1.19-3.67,2.36-5.2,1.16-1.53,2.68-2.78,4.4-3.64h0s0,0,0,0c.12-.07.27-.1.46-.1.56,0,1.01.46,1.01,1.01,0,.2-.07.41-.2.59,0,.01-.05.06-.06.07-.12.15-.14.18-.21.26s-3.7,3.99-3.7,3.99l-3.6,3.27ZM49.42,20.23s-.06.03-.09.04-.06.02-.09.02c-.14,0-.26-.12-.26-.27v-.03c0-2.94.83-5.8,2.39-8.29,1.56-2.48,3.79-4.46,6.43-5.72,0,0,0,0,0,0h0c.12-.07.26-.1.44-.1.56,0,1.01.46,1.01,1.01,0,.15-.04.3-.11.45,0,.01,0,.02,0,.03l-1.06,2.04-1.19,2-1.29,1.92-1.39,1.85-1.51,1.76-1.6,1.69-1.63,1.54s-.04.03-.06.05Z"></path></g><g><path class="st1" d="M74.13,47.41h6.64l-.15,1.41h-2.47l-.74,6.8h-1.72l.74-6.8h-2.45l.15-1.41Z"></path><path class="st1" d="M83.16,47.41h1.71l-.35,3.24h3.3l.35-3.24h1.73l-.9,8.21h-1.73l.39-3.55h-3.3l-.39,3.55h-1.71l.9-8.21Z"></path><path class="st1" d="M92.93,47.41h5.87l-.16,1.43h-4.15l-.2,1.81h2.53l-.13,1.22h-2.53l-.26,2.34h4.15l-.15,1.42h-5.87l.9-8.21Z"></path><path class="st1" d="M105.97,47.41h5.37l-.15,1.42h-3.64l-.23,2.15h2.1l-.15,1.42h-2.1l-.35,3.23h-1.73l.9-8.21Z"></path><path class="st1" d="M114.64,47.41h1.83l1.95,8.21h-1.69l-.45-1.93h-2.8l-.87,1.93h-1.69l3.73-8.21ZM115.31,49.63l-1.32,2.86h1.99l-.68-2.86Z"></path><path class="st1" d="M121.94,53.32c.24.42.5.71.76.87s.58.25.97.25c.46,0,.83-.11,1.1-.32.28-.21.43-.46.46-.75.03-.25-.05-.48-.23-.67-.18-.19-.62-.38-1.32-.56-.95-.24-1.61-.53-1.99-.88-.47-.44-.68-.98-.61-1.62.08-.69.4-1.26.97-1.71.57-.45,1.31-.68,2.22-.68.52,0,.97.08,1.36.24.39.16.71.37.96.62.16.17.32.4.47.69l-1.5.55c-.21-.33-.43-.56-.67-.71-.24-.15-.52-.23-.83-.23-.38,0-.7.1-.96.3-.25.2-.39.45-.43.73-.02.23.05.43.22.59.17.16.62.33,1.35.51.73.18,1.28.38,1.64.61.36.23.62.53.77.91s.21.75.16,1.15c-.05.42-.21.83-.51,1.25-.29.42-.7.74-1.21.97s-1.09.34-1.72.34c-.6,0-1.11-.09-1.53-.28-.42-.19-.77-.44-1.04-.76-.18-.2-.35-.49-.51-.85l1.6-.56Z"></path><path class="st1" d="M129.55,47.41h6.64l-.15,1.41h-2.47l-.74,6.8h-1.72l.74-6.8h-2.45l.15-1.41Z"></path><path class="st1" d="M138.59,47.41h5.87l-.16,1.43h-4.15l-.2,1.81h2.53l-.13,1.22h-2.53l-.26,2.34h4.15l-.15,1.42h-5.87l.9-8.21Z"></path><path class="st1" d="M147.42,53.32c.24.42.5.71.76.87s.58.25.97.25c.46,0,.83-.11,1.1-.32.28-.21.43-.46.46-.75.03-.25-.05-.48-.23-.67-.18-.19-.62-.38-1.32-.56-.95-.24-1.61-.53-1.99-.88-.47-.44-.68-.98-.61-1.62.08-.69.4-1.26.97-1.71.57-.45,1.31-.68,2.22-.68.52,0,.97.08,1.36.24.39.16.71.37.96.62.16.17.32.4.47.69l-1.5.55c-.21-.33-.43-.56-.67-.71-.24-.15-.52-.23-.83-.23-.38,0-.7.1-.96.3-.25.2-.39.45-.43.73-.03.23.05.43.22.59.17.16.62.33,1.35.51.73.18,1.28.38,1.64.61.36.23.62.53.77.91.15.37.21.75.16,1.15-.05.42-.21.83-.51,1.25-.29.42-.7.74-1.21.97s-1.09.34-1.72.34c-.6,0-1.11-.09-1.53-.28-.42-.19-.77-.44-1.04-.76-.18-.2-.35-.49-.51-.85l1.6-.56Z"></path><path class="st1" d="M155.03,47.41h6.64l-.15,1.41h-2.47l-.74,6.8h-1.72l.74-6.8h-2.45l.15-1.41Z"></path><path class="st1" d="M167.83,47.41h1.65l.68,4.7,1.71-4.7h1.96l.69,4.74,1.7-4.74h1.65l-2.97,8.21h-1.35l-.9-6.27-2.3,6.27h-1.35l-1.18-8.21Z"></path><path class="st1" d="M182.05,47.41h1.83l1.95,8.21h-1.69l-.45-1.93h-2.8l-.87,1.93h-1.69l3.73-8.21ZM182.73,49.63l-1.32,2.86h1.99l-.68-2.86Z"></path><path class="st1" d="M187.14,47.41h1.79l1.26,2.85,1.86-2.85h1.8l-2.98,4.55-.4,3.66h-1.73l.4-3.66-2-4.55Z"></path><path class="st1" d="M200.19,47.41h6.64l-.15,1.41h-2.47l-.74,6.8h-1.72l.74-6.8h-2.45l.15-1.41Z"></path><path class="st1" d="M212.08,47.25c.82,0,1.47.13,1.95.39.62.34,1.07.82,1.35,1.45.28.63.36,1.46.25,2.48-.15,1.39-.61,2.44-1.39,3.15-.78.71-1.74,1.07-2.89,1.07s-2.06-.36-2.69-1.09c-.64-.72-.88-1.78-.73-3.17.09-.84.32-1.59.68-2.25.2-.37.47-.71.83-1.03s.76-.56,1.21-.73c.45-.17.92-.25,1.43-.25ZM212.1,48.65c-.59,0-1.1.22-1.54.67-.43.44-.71,1.18-.82,2.2-.11,1.01,0,1.73.35,2.17.34.44.82.66,1.43.66s1.09-.22,1.52-.66c.43-.44.7-1.16.81-2.15.12-1.12-.03-1.9-.45-2.36-.32-.35-.76-.53-1.31-.53Z"></path><path class="st1" d="M229.23,53.27c-.17.46-.37.83-.58,1.1-.35.44-.78.79-1.28,1.04-.51.25-1.07.38-1.7.38-.67,0-1.29-.16-1.87-.47-.58-.32-.99-.79-1.24-1.42-.25-.63-.33-1.37-.23-2.23.1-.89.34-1.68.74-2.36.4-.68.92-1.2,1.57-1.54.65-.34,1.32-.51,2-.51.5,0,.98.1,1.43.31.46.21.82.5,1.09.88.19.26.32.61.41,1.05l-1.65.43c-.07-.44-.23-.78-.5-1.01-.27-.23-.6-.34-1.01-.34-.61,0-1.12.28-1.52.83-.4.55-.65,1.28-.75,2.17-.06.57-.04,1.06.07,1.49.11.43.29.74.54.94.25.2.54.3.86.3.48,0,.93-.16,1.34-.49.29-.23.54-.55.74-.98l1.54.42Z"></path><path class="st1" d="M235.51,47.25c.82,0,1.47.13,1.95.39.62.34,1.07.82,1.35,1.45.28.63.36,1.46.25,2.48-.15,1.39-.61,2.44-1.39,3.15-.78.71-1.74,1.07-2.89,1.07s-2.06-.36-2.69-1.09c-.64-.72-.88-1.78-.73-3.17.09-.84.32-1.59.68-2.25.2-.37.47-.71.83-1.03s.76-.56,1.21-.73c.45-.17.92-.25,1.43-.25ZM235.53,48.65c-.59,0-1.1.22-1.54.67-.43.44-.71,1.18-.82,2.2-.11,1.01,0,1.73.35,2.17.34.44.82.66,1.43.66.58,0,1.09-.22,1.52-.66s.7-1.16.81-2.15c.12-1.12-.03-1.9-.45-2.36-.32-.35-.76-.53-1.31-.53Z"></path><path class="st1" d="M242.05,47.41h1.82l2.99,5.51.6-5.51h1.7l-.9,8.21h-1.7l-3.06-5.72-.62,5.72h-1.72l.9-8.21Z"></path><path class="st1" d="M252.17,47.41h1.82l2.99,5.51.6-5.51h1.7l-.9,8.21h-1.7l-3.06-5.72-.62,5.72h-1.72l.9-8.21Z"></path><path class="st1" d="M262.31,47.41h5.87l-.16,1.43h-4.15l-.2,1.81h2.53l-.13,1.22h-2.53l-.26,2.34h4.15l-.15,1.42h-5.87l.9-8.21Z"></path><path class="st1" d="M276.68,53.27c-.17.46-.37.83-.58,1.1-.35.44-.78.79-1.28,1.04-.51.25-1.07.38-1.7.38-.67,0-1.29-.16-1.87-.47-.58-.32-.99-.79-1.24-1.42-.25-.63-.33-1.37-.23-2.23.1-.89.34-1.68.74-2.36.4-.68.92-1.2,1.57-1.54.65-.34,1.32-.51,2-.51.5,0,.98.1,1.43.31.46.21.82.5,1.09.88.19.26.32.61.41,1.05l-1.65.43c-.07-.44-.23-.78-.5-1.01-.27-.23-.6-.34-1.01-.34-.61,0-1.12.28-1.52.83-.4.55-.65,1.28-.75,2.17-.06.57-.04,1.06.07,1.49.11.43.29.74.54.94.25.2.54.3.86.3.48,0,.93-.16,1.34-.49.29-.23.54-.55.74-.98l1.54.42Z"></path><path class="st1" d="M279.12,47.41h6.64l-.15,1.41h-2.47l-.74,6.8h-1.72l.74-6.8h-2.45l.15-1.41Z"></path></g></svg>