<?xml version="1.0" encoding="utf-8"?>
<!-- Generator: Adobe Illustrator 25.0.1, SVG Export Plug-In . SVG Version: 6.00 Build 0)  -->
<svg version="1.1" id="Layer_1" xmlns="http://www.w3.org/2000/svg" xmlns:xlink="http://www.w3.org/1999/xlink" x="0px" y="0px"
	 viewBox="0 0 402.1 129.2" style="enable-background:new 0 0 402.1 129.2;" xml:space="preserve">
<style type="text/css">
	.st0{fill:#133664;}
	.st1{fill:#00AAB3;}
</style>
<path class="st0" d="M0.8,57.9l6.8-4C9.3,58.8,13,62,19.5,62c6.2,0,8.9-2.8,8.9-6.3c0-4.2-3.8-5.7-10.9-7.9c-7.5-2.3-14.7-5-14.7-14
	C2.8,25,10.1,20,18.2,20c7.9,0,13.7,4.2,16.7,10.5l-6.6,3.8c-1.7-3.8-4.7-6.7-10.1-6.7c-4.6,0-7.5,2.3-7.5,6c0,3.7,2.7,5.3,9.6,7.5
	c7.9,2.5,15.9,5,15.9,14.5c0,8.8-7,14.1-17,14.1C9.8,69.7,3.3,65,0.8,57.9z"/>
<path class="st0" d="M39.3,44.8c0-13.9,10.5-24.8,25-24.8c8.8,0,16.6,4.4,20.6,11.4l-6.8,4c-2.5-4.7-7.7-7.7-13.8-7.7
	C54,27.7,47.2,35,47.2,44.8C47.2,54.7,54,62,64.3,62c6,0,11.3-3,13.8-7.7l6.8,3.9c-4,7-11.8,11.5-20.6,11.5
	C49.8,69.7,39.3,58.7,39.3,44.8z"/>
<path class="st0" d="M126.8,20.9v47.9H119V48H98.4v20.7h-7.9V20.9h7.9v19.6H119V20.9H126.8z"/>
<path class="st0" d="M172.5,20.9v47.9h-6.2l-22.6-32.5v32.5h-7.9V20.9h6.2l22.6,32.5V20.9H172.5z"/>
<path class="st0" d="M210.6,61.3v7.5h-29.1V20.9h28.7v7.5h-20.9v12.5h19.2v7.5h-19.2v12.9H210.6z"/>
<path class="st0" d="M225.3,20.9v47.9h-7.9V20.9H225.3z"/>
<path class="st0" d="M276,44.8c0,13.3-9.7,24-22.9,24h-18.8V20.9h18.8C266.3,20.9,276,31.4,276,44.8z M268.4,44.8
	c0-9.5-6.2-16.4-15.3-16.4h-11v32.8h11C262.2,61.3,268.4,54.3,268.4,44.8z"/>
<path class="st0" d="M311.5,61.3v7.5h-29.1V20.9h28.7v7.5h-20.9v12.5h19.2v7.5h-19.2v12.9H311.5z"/>
<path class="st0" d="M335.5,51.3h-9.3v17.5h-7.9V20.9h19.2c8.6,0,15.4,6.8,15.4,15.4c0,6.2-3.9,11.6-9.5,13.9l10.9,18.6h-8.6
	L335.5,51.3z M326.2,44.3h11.3c4.2,0,7.5-3.6,7.5-8c0-4.5-3.4-8-7.5-8h-11.3V44.3z"/>
<path class="st0" d="M211.1,106.4c0,13.1-9.4,22.4-23.5,22.4c-14.9,0-25.5-11.1-25.5-24.8s10.7-24.8,25.1-24.8
	c9.1,0,16.8,4.6,20.9,11.4l-6.8,3.9c-2.5-4.4-7.8-7.6-14.1-7.6c-10.1,0-17.2,7.5-17.2,17.2c0,9.6,7,17.1,17.7,17.1
	c8.7,0,14-4.5,15.5-11h-16v-7h24V106.4z"/>
<path class="st0" d="M246.5,120.4v7.5h-29.1V80h28.7v7.5h-20.9V100h19.2v7.5h-19.2v12.9H246.5z"/>
<path class="st0" d="M299.2,127.9h-7.9V93.8l-14.6,24.1h-1l-14.6-24.2v34.2h-7.9V80h8.5l14.4,24l14.5-24h8.4V127.9z"/>
<path class="st0" d="M305.1,117l6.8-4c1.7,4.9,5.4,8.1,11.9,8.1c6.2,0,8.9-2.8,8.9-6.3c0-4.2-3.8-5.7-10.9-7.9
	c-7.5-2.3-14.7-5-14.7-14c0-8.8,7.3-13.8,15.4-13.8c7.9,0,13.7,4.2,16.7,10.5l-6.6,3.8c-1.7-3.8-4.7-6.7-10.1-6.7
	c-4.6,0-7.5,2.3-7.5,6c0,3.7,2.7,5.3,9.6,7.5c7.9,2.5,15.9,5,15.9,14.5c0,8.8-7,14.1-17,14.1C314.2,128.8,307.7,124.1,305.1,117z"/>
<path class="st0" d="M373.7,118.3h-20.4l-3.4,9.6h-8.6L358.7,80h9.4l17.3,47.9H377L373.7,118.3z M371.1,110.9l-7.6-21.6l-7.6,21.6
	H371.1z"/>
<rect x="217.5" y="0.8" class="st1" width="7.9" height="12.2"/>
<rect x="389.9" y="120" class="st1" width="12.2" height="7.9"/>
<path class="st0" d="M151.7,97.8c0.6-0.6,1-1.2,1.4-1.6h0c0.3-0.4,0.6-0.7,0.8-1l0.2-0.2l-3.4-1.7l-0.3,0.3
	c-0.4,0.4-0.8,0.9-1.2,1.3l-3.7-4.5c1.3-1,2.3-2,2.8-2.7c0.6-0.8,0.9-1.8,0.9-2.8c0-1.5-0.5-2.7-1.6-3.7c-1.1-1-2.4-1.5-4-1.5
	c-1.7,0-3,0.5-4.1,1.5c-1,1-1.6,2.3-1.6,3.9c0,1.5,0.7,3.1,2.1,4.7c0,0,0,0-0.1,0.1l-1.5,1c-2.2,1.5-3.4,3.5-3.4,5.8
	c0,2,0.7,3.6,2.1,5c1.4,1.3,3.2,2,5.3,2c2.2,0,4.4-1,6.4-3.1l2.2,2.6h4.9L151.7,97.8z M145.2,86c-0.1,0.2-0.3,0.4-0.6,0.6
	c-0.3,0.3-0.7,0.6-1.2,0.9l-0.1,0.1c0,0,0,0,0,0l-0.8-1c-0.5-0.6-0.7-1.2-0.7-1.8c0-0.5,0.2-0.9,0.5-1.2l0,0
	c0.4-0.3,0.8-0.5,1.4-0.5c0.6,0,1.1,0.2,1.4,0.5c0.3,0.3,0.5,0.7,0.5,1.3C145.6,85.3,145.5,85.7,145.2,86z M142.5,92.6L142.5,92.6
	l4.2,5.1c-1.6,1.6-3,2.4-4.2,2.4c-0.9,0-1.7-0.4-2.4-1c-0.7-0.7-1.1-1.5-1.1-2.4c0-0.6,0.2-1.2,0.7-1.7
	C140.2,94.4,141.1,93.6,142.5,92.6z"/>
</svg>
